<?xml version="1.0" encoding="utf-8"?>
<!-- Generator: Adobe Illustrator 28.0.0, SVG Export Plug-In . SVG Version: 6.00 Build 0)  -->
<svg version="1.1" id="Layer_1" xmlns="http://www.w3.org/2000/svg" xmlns:xlink="http://www.w3.org/1999/xlink" x="0px" y="0px"
	 viewBox="0 0 450.1 427.2" style="enable-background:new 0 0 450.1 427.2;" xml:space="preserve">
<style type="text/css">
	.st0{fill:url(#SVGID_1_);}
</style>
<linearGradient id="SVGID_1_" gradientUnits="userSpaceOnUse" x1="413.5708" y1="402.4549" x2="36.3916" y2="25.2756">
	<stop  offset="0" style="stop-color:#0077E2"/>
	<stop  offset="1" style="stop-color:#8ED937"/>
</linearGradient>
<path class="st0" d="M375.9,213.8c4.7,2.7,9.4,5.2,13.9,7.9c31.4,18.9,51.4,45.9,58.5,82.2c11,56.9-29.1,113.7-86.5,122
	c-27,3.9-52.4-1.8-76.4-14.6c-22-11.7-40.4-28-57.2-46.1c-1-1.1-2.1-2.2-3.1-3.3c-0.2-0.2-0.4-0.2-1.1-0.5c-1.9,2-4,4.1-6,6.3
	c-16.6,18.3-35.3,33.9-57.5,45c-27.2,13.6-55.6,18.7-85.4,10.2c-40.7-11.6-71-47.7-74.6-89.5c-3.4-39.2,10.9-71.8,40.1-97.8
	c7.7-6.8,16.9-11.9,25.4-17.7c2.3-1.5,4.7-2.7,7.5-4.3c-5.5-3.3-10.8-6.2-15.9-9.5c-29-19-48.8-44.6-55.3-79.1
	C-5.5,83.4,7.9,48.5,40.6,22.2C72.6-3.6,108.8-5.4,146.3,9.1c20.3,7.9,37.9,20.2,53.8,34.9c8.3,7.7,16.2,15.8,23.3,22.8
	c5.4-4.8,11.1-9.5,16.4-14.6c18-17.6,37.6-33.1,61.1-42.6C327.5-1.1,354.7-4,381.9,6.9c35.6,14.2,58,40.6,65.6,77.9
	c7.9,39.1-5.1,72.6-32.1,101c-10.3,10.8-22.7,18.7-35.8,25.6c-1,0.5-2,1.1-2.9,1.6C376.4,213.2,376.2,213.4,375.9,213.8z
	 M207.7,85.6c-19.3-21.8-40.3-41.5-67.4-53.7c-17.6-7.9-36.1-11.4-55.1-6.6c-24.4,6.1-41.5,21.5-53,43.5
	c-15.1,29-9.4,67.9,13.5,94.1c14.3,16.4,32.2,27.4,51.9,35.9c25.2,10.9,50.4,21.8,75.6,32.7c0.9,0.4,2.4,0.8,3.1,0.4
	c7.9-4.4,15.8-8.9,24.2-13.7c-1.4-0.9-2.3-1.5-3.3-2c-6-3.3-12.1-6.5-18.1-9.9c-31.3-18-62.5-36.1-93.7-54.2
	c-9-5.2-17.7-10.8-24.2-19.2c-13-16.7-16.5-35.3-8.9-55c7.8-20.2,23.2-31.7,44.7-34.8c6.1-0.9,12.3-0.7,17.6,3.3
	c4.1,3.1,5.8,8.1,4.1,12.2c-1.8,4.5-5.9,7-11.2,6.2c-14.8-2.4-27.4,6.8-33.2,18.7c-7.4,15-2.2,32.9,13,42.5
	c14.3,8.9,29,17.1,43.7,25.5c30.1,17.2,60.3,34.4,90.6,51.4c1.2,0.7,3.4,0.9,4.6,0.3c7.2-4,14.2-8.3,21.3-12.5
	c1.1-0.7,2.2-1.4,3.7-2.4c-1.4-0.9-2.3-1.6-3.2-2.2c-9-5.6-18.1-11.1-27.1-16.6c-28.8-17.5-57.7-34.9-86.6-52.3
	c-9.5-5.7-19.1-11.4-28.5-17.2c-4.7-2.9-6.5-7.2-5.4-11.7c2.1-8.7,10.2-12,18.5-7.3c10,5.7,19.8,11.6,29.7,17.4
	c10.5,6.2,21.1,12.5,31.6,18.7c1.7,1,2.9,1.5,4.4-0.6C192.1,106.3,199.8,96.2,207.7,85.6z M198.2,246.4c2.2,1.4,3.8,2.6,5.5,3.6
	c31.4,18,62.8,36.1,94.3,54c15,8.5,30,16.9,45,25.4c4.5,2.5,6.7,6.3,5.9,11.5c-0.7,4.5-4.1,7.5-9.5,8.9c-4.2,1.1-7.9,0-11.5-2
	c-19.9-11.2-39.9-22.3-59.8-33.6c-2.7-1.5-3.7-0.9-5.3,1.2c-6.1,8.1-12.4,16-18.6,24c-1.1,1.4-2.3,2.8-3.6,4.4
	c19.3,21.8,40.3,40.9,67.4,52.3c17.2,7.2,35.1,10.2,53.5,6.5c42.6-8.6,70.5-49.7,63.6-92.9c-4.3-26.6-18.1-46.9-39.5-62.6
	c-16.2-11.8-34.9-18.1-53.7-24.3c-15.8-5.3-31.6-10.8-47.2-17c-8.6-3.4-8.3-4.1-16.5,0.5c-6.3,3.5-12.5,7.1-19.4,11.1
	c2.4,1.3,4,2.3,5.6,3.1c24.4,12.5,49,24.8,73.3,37.7c16.7,8.8,33.4,17.7,49.2,27.8c19.1,12.2,27.4,34.1,22.7,56.1
	c-4.4,20.7-21.9,37.8-43.3,41.8c-5.8,1.1-11.7,1.4-17.4-0.7c-6.1-2.2-9.2-7.3-8.1-13.1c0.9-4.9,5-7.1,11.9-7.1c4.3,0,8.9,0,12.9-1.4
	c12.8-4.4,20.6-13.7,22.2-27.1c1.7-13.7-4.2-24.4-16-31.1c-18-10.3-36.3-20-54.7-29.6c-24.5-12.8-49.3-24.9-73.6-38
	c-6.5-3.5-11.5-4.6-17.7,0C210.7,240,204.5,242.8,198.2,246.4z M266,117.6c0.6-0.3,1.3-0.6,2-0.9c18.9-11.2,37.9-22.3,56.8-33.5
	c2.3-1.3,4.6-2.7,7-3.5c7.9-2.9,16.1,1.4,17.2,8.8c0.9,5.7-2.1,9.1-6.7,11.7c-25.8,15-51.5,30.2-77.3,45.3
	c-6.3,3.7-12.6,7.5-19.4,11.6c2.2,1.4,3.7,2.5,5.2,3.4c7.4,4.4,14.9,8.6,22.3,13.1c2.3,1.4,4.1,1.4,6.4,0c19-11.1,38.1-22,57.1-32.9
	c9.4-5.4,19.1-10.4,28.1-16.5c12.4-8.4,16.7-24.2,11.4-38c-5.5-14.3-18.8-22.7-33.8-21.2c-5.6,0.5-9.5-1.7-11.1-6.1
	c-1.7-4.7,0-10.3,4.7-12.6c3.7-1.8,8-3,12.1-3.1c30.1-0.6,56.2,28.9,52.8,59.4c-2.1,18.8-11.3,33.3-27.3,43
	c-22.8,13.9-46.1,27-69.2,40.5c-0.8,0.4-1.4,1.1-3,2.3c12.7,4.2,24.3,8.2,36.1,12c0.9,0.3,2,0.1,3-0.1c30-6.6,54.6-21.6,71.2-47.7
	c17.2-27,20-55.8,5.1-84.8c-12-23.3-31.1-38.3-57.1-43.2c-21.3-4-41.2,1.4-60,11.4c-16.3,8.6-30.2,20.4-43.1,33.3
	c-5.4,5.4-10.7,11.1-15.9,16.5C249.2,96.6,257.5,106.9,266,117.6z M207.5,344.2c-7.6-10-15-19.4-22.1-29.1c-1.8-2.4-3-2.5-5.4-1.1
	c-12.2,7.3-24.6,14.4-36.9,21.5c-7.5,4.3-14.9,8.8-22.6,12.6c-3,1.5-6.7,2.1-10,1.9c-5.4-0.4-9.2-4.4-10-9.1
	c-0.9-4.9,0.9-8.2,6.1-11.3c26.5-15.4,53-30.7,79.4-46c4.5-2.6,9-5.4,14-8.4c-8.7-5.1-17-9.7-25-14.7c-3-1.9-5.4-1.8-8.5-0.1
	c-25.5,14-51.1,27.9-76.7,41.8c-7.8,4.3-14.1,10-17,18.7c-7.5,22.5,12.3,45.5,34.5,42.2c5.8-0.9,10,1.7,11.6,6.6
	c1.6,4.7-0.6,10.1-5.8,12.4c-3.6,1.6-7.6,2.7-11.5,2.8c-26.2,0.4-51-22.8-52.7-48.9c-1.6-23.5,8.5-40.9,28.4-52.6
	c16.5-9.7,33.3-18.8,50-28.1c6.1-3.4,12.2-6.7,19-10.4c-2.1-1-3.5-1.8-5-2.4c-6.9-3-13.8-5.9-20.7-8.8c-15.7-6.7-16.9-6.9-32.5-0.1
	c-34.4,14.9-57.8,39.3-63.5,77.4c-4.8,32.3,6.5,58.9,32.9,78.2c22.8,16.7,48.2,18.6,74.6,10.4C163.6,389.7,186.3,367.8,207.5,344.2z
	 M245.1,129.8c-7.2-8.9-13.9-17.3-21.1-26.2c-7.2,9.4-13.9,18.1-21,27.3c6.7,4,12.7,7.6,18.7,11.1c0.9,0.5,2.5,0.6,3.3,0.1
	C231.6,138.3,238,134.2,245.1,129.8z M244.6,301c-6.8-3.9-13-7.5-19.3-11c-0.7-0.4-1.9-0.6-2.4-0.3c-6.2,3.5-12.2,7.1-18.9,10.9
	c7,8.8,13.7,17.1,20.7,26C231.5,317.8,237.9,309.6,244.6,301z"/>
</svg>
